<svg xmlns="http://www.w3.org/2000/svg" viewBox="207.3368 393 1154.9632 229">
    <path d="M 6765 5679 C 6649 5671 6594 5657 6494 5609 C 6403 5566 6313 5487 6262 5405 L 6230 5355 L 6230 5518 L 6230 5680 L 6080 5680 L 5930 5680 L 5930 4870 L 5930 4060 L 6080 4060 L 6230 4060 L 6230 4493 C 6230 4968 6235 5014 6289 5125 C 6330 5208 6415 5299 6487 5337 C 6585 5389 6641 5401 6813 5407 L 6971 5413 L 6968 5549 L 6965 5684 L 6910 5685 C 6880 5685 6815 5682 6765 5679 Z M 5220 4870 L 5220 4060 L 5380 4060 L 5539 4060 L 5537 4868 L 5535 5675 L 5378 5678 L 5220 5681 L 5220 4870 Z M 5375 6235 L 5195 6162 L 5192 6017 L 5189 5872 L 5327 5927 C 5403 5957 5489 5991 5518 6002 L 5570 6023 L 5570 6166 C 5570 6245 5567 6310 5563 6309 C 5558 6308 5474 6275 5375 6235 Z M 3362 6283 C 3352 6267 3269 6127 3178 5970 C 3001 5663 2700 5149 2318 4497 C 2187 4273 2077 4083 2074 4075 C 2069 4062 2091 4060 2238 4060 L 2408 4060 L 2430 4098 C 2465 4156 2904 4912 3032 5135 C 3239 5494 3503 5954 3528 5998 C 3541 6022 3553 6040 3555 6038 C 3556 6036 3763 5668 3960 5318 L 3986 5271 L 4108 5350 C 4175 5394 4230 5432 4230 5435 C 4230 5438 4132 5613 4012 5823 C 3891 6033 3780 6229 3764 6257 L 3735 6310 L 3558 6310 L 3381 6310 L 3362 6283 Z M 4191 5209 C 4102 5151 4070 5125 4074 5114 C 4077 5106 4173 4934 4287 4732 C 4400 4530 4532 4296 4579 4213 L 4665 4060 L 4838 4060 C 5000 4060 5012 4061 5006 4078 C 5002 4087 4892 4282 4761 4510 C 4629 4738 4483 4995 4435 5080 C 4387 5165 4340 5247 4331 5262 L 4315 5289 L 4191 5209 Z M 7775 5708 C 7484 5676 7278 5562 7196 5391 C 7167 5330 7165 5317 7165 5220 C 7165 5125 7168 5109 7193 5058 C 7272 4897 7431 4821 7772 4780 C 7867 4769 8021 4750 8113 4739 C 8304 4716 8388 4694 8449 4649 C 8517 4600 8539 4515 8504 4432 C 8473 4356 8383 4295 8258 4265 C 8169 4243 7944 4235 7835 4249 C 7602 4281 7438 4387 7415 4520 L 7408 4560 L 7258 4560 L 7108 4560 L 7115 4503 C 7153 4197 7474 4021 7990 4020 C 8229 4020 8418 4054 8566 4124 C 8663 4170 8758 4260 8796 4342 C 8823 4400 8825 4414 8825 4520 C 8825 4625 8823 4640 8798 4690 C 8746 4796 8643 4874 8497 4919 C 8405 4947 8295 4965 8020 4995 C 7737 5027 7664 5041 7583 5080 C 7503 5120 7475 5162 7475 5242 C 7476 5289 7481 5307 7506 5342 C 7548 5403 7654 5455 7780 5476 C 7892 5495 8097 5490 8199 5465 C 8349 5429 8457 5348 8491 5248 L 8509 5195 L 8656 5192 L 8803 5189 L 8796 5247 C 8780 5390 8668 5531 8508 5610 C 8326 5699 8038 5738 7775 5708 Z M 9100 4870 L 9100 4060 L 9255 4060 L 9410 4060 L 9410 4870 L 9410 5680 L 9255 5680 L 9100 5680 L 9100 4870 Z M 9100 6140 L 9100 5970 L 9260 5970 L 9420 5970 L 9420 6140 L 9420 6310 L 9260 6310 L 9100 6310 L 9100 6140 Z M 11290 5858 L 11289 5405 L 11268 5435 C 11163 5582 10965 5683 10730 5710 C 10492 5738 10241 5692 10068 5590 C 9814 5439 9671 5174 9670 4854 C 9669 4451 9902 4151 10295 4049 C 10374 4028 10408 4025 10580 4025 C 10749 4025 10787 4028 10863 4048 C 11026 4089 11183 4181 11253 4276 C 11271 4300 11287 4319 11290 4320 C 11293 4320 11294 4262 11292 4190 L 11289 4060 L 11439 4060 L 11590 4060 L 11590 5185 L 11590 6310 L 11440 6310 L 11290 6310 L 11290 5858 Z M 10858 5459 C 11071 5405 11223 5254 11275 5045 C 11298 4955 11298 4780 11276 4686 C 11229 4486 11076 4334 10864 4274 C 10777 4250 10546 4244 10451 4264 C 10226 4312 10054 4474 10004 4686 C 9984 4775 9984 4954 10005 5035 C 10083 5336 10344 5505 10700 5483 C 10747 5480 10818 5469 10858 5459 Z M 12565 5709 C 12402 5688 12234 5623 12120 5535 C 11915 5377 11810 5146 11810 4852 C 11810 4693 11835 4576 11896 4452 C 11935 4371 11956 4342 12029 4270 C 12103 4196 12130 4176 12220 4131 C 12366 4059 12486 4030 12670 4023 C 13131 4005 13457 4157 13576 4448 C 13619 4553 13623 4550 13456 4550 L 13312 4550 L 13286 4496 C 13232 4386 13104 4297 12949 4263 C 12848 4241 12638 4241 12545 4264 C 12381 4304 12241 4407 12181 4534 C 12150 4599 12120 4704 12120 4753 L 12120 4780 L 12871 4780 L 13623 4780 L 13617 4923 C 13609 5133 13563 5278 13459 5418 C 13292 5641 12939 5755 12565 5709 Z M 12935 5465 C 13141 5411 13275 5275 13310 5082 C 13316 5048 13318 5015 13315 5010 C 13311 5004 13094 5000 12719 5000 L 12130 5000 L 12130 5023 C 12130 5036 12137 5071 12146 5101 C 12207 5307 12373 5442 12613 5481 C 12686 5492 12863 5484 12935 5465 Z" transform="matrix(0.10000000149011612, 0, 0, -0.10000000149011612, 0, 1024.0000000000002)"></path>
</svg>